<?xml version="1.0" encoding="utf-8"?>
<!-- Generator: Adobe Illustrator 25.4.1, SVG Export Plug-In . SVG Version: 6.00 Build 0)  -->
<svg version="1.1" id="Layer_1" xmlns="http://www.w3.org/2000/svg" xmlns:xlink="http://www.w3.org/1999/xlink" x="0px" y="0px"
	 viewBox="0 0 1200 1200" style="enable-background:new 0 0 1200 1200;" xml:space="preserve">
<style type="text/css">
	.st0{fill:#FFFFFF;}
</style>
<path class="st0" d="M990.3,276.6H756.4V172.4c0-42.4-16.9-83-46.9-112.9S639,12.7,596.6,12.6H322.9c-42.4,0.1-83,16.9-112.9,46.9
	c-30,30-46.8,70.6-46.9,112.9v122.7c0,42.4,16.9,83,46.8,112.9s70.6,46.8,112.9,46.9H348l99.3,108.6c1.6,1.7,3.5,3.1,5.6,4H227
	c-47,0.1-92,18.7-125.2,51.9C68.6,652.7,50,697.8,49.9,744.7v137.6c0.1,47,18.7,92,51.9,125.2c33.2,33.2,78.2,51.9,125.2,51.9h29.1
	L368,1182h0c2.9,3.1,6.8,5,11,5.4c4.2,0.3,8.4-1,11.7-3.6c3.3-2.6,5.5-6.4,6.1-10.6l16.4-113.7h120.7c47,0,92-18.7,125.3-51.9
	c33.2-33.2,51.9-78.3,52-125.2V744.7c0-8.7-0.6-17.4-1.9-26c2.4,0.1,4.9,0.2,7.4,0.2h106.1l14.5,99.8l0,0c0.6,4.2,2.8,8,6.1,10.6
	c3.3,2.6,7.5,3.9,11.7,3.6c4.2-0.3,8.1-2.2,11-5.4l99.3-108.6h25.1c42.4-0.1,83-16.9,112.9-46.9s46.8-70.6,46.9-112.9V436.4
	c-0.1-42.4-16.9-83-46.9-112.9C1073.3,293.5,1032.7,276.7,990.3,276.6L990.3,276.6z M367.6,427c-3.2-3.4-7.6-5.4-12.3-5.4h-32.4
	c-33.5,0-65.7-13.4-89.4-37.1c-23.7-23.7-37-55.9-37.1-89.4V172.4c0-33.5,13.4-65.7,37.1-89.4s55.9-37.1,89.4-37.1h273.8
	c33.5,0,65.7,13.4,89.4,37.1c23.7,23.7,37.1,55.9,37.1,89.4v104.2h-6.6h0c-39.8,0.1-78.2,14.9-107.6,41.7
	c-29.4,26.8-47.8,63.6-51.5,103.2h-81.4c-4,0-7.8,1.5-10.9,4.1c-3,2.6-5,6.2-5.6,10.2l-11.5,79.3L367.6,427z M476,554.8l14.5-99.8
	h66.3v104.2c0,3.4,0.1,6.7,0.4,10.1h0c-7.7-1-15.4-1.5-23.1-1.6h-67.8C471.5,565.4,475.2,560.5,476,554.8L476,554.8z M677.8,882.3
	c0,38.1-15.2,74.7-42.2,101.7c-27,27-63.5,42.1-101.7,42.2H398.8c-4,0-7.8,1.5-10.9,4.1c-3,2.6-5,6.2-5.6,10.2l-13.6,93.1
	l-93.1-101.9c-3.2-3.4-7.6-5.4-12.3-5.4H227c-38.1,0-74.7-15.2-101.7-42.2c-27-27-42.1-63.5-42.2-101.7V744.7
	c0-38.1,15.2-74.7,42.2-101.7c27-27,63.5-42.1,101.7-42.2h307c38.1,0,74.7,15.2,101.7,42.2c27,27,42.1,63.5,42.2,101.7L677.8,882.3z
	 M1116.8,559.1c0,33.5-13.4,65.7-37.1,89.4c-23.7,23.7-55.9,37.1-89.4,37.1h-32.5c-4.7,0-9.1,2-12.3,5.4L865,779.1l-11.5-79.3
	c-0.6-4-2.5-7.6-5.6-10.2c-3-2.6-6.9-4.1-10.9-4.1H716.5c-5.3,0-10.7-0.4-16-1c-9.1-24.9-23.6-47.4-42.4-66
	c-18.9-18.6-41.7-32.7-66.7-41.3c-0.9-6-1.3-12.1-1.4-18.1V436.3c0-33.5,13.4-65.7,37.1-89.4s55.9-37.1,89.4-37.1h273.8
	c33.5,0,65.7,13.4,89.4,37.1c23.7,23.7,37,55.9,37.1,89.4L1116.8,559.1z M467.4,660.2c-17-1.3-34.1,2-49.4,9.6
	c-15.3,7.6-28.3,19.2-37.5,33.6c-9.2-14.4-22.2-26-37.5-33.6c-15.3-7.6-32.4-10.9-49.4-9.6c-23.7,2-46,11.6-63.8,27.4
	c-17.7,15.8-29.9,36.9-34.6,60.2c-7.8,37.3-6.2,134.4,177.6,231.5h0c4.9,2.6,10.7,2.6,15.6,0C572,882.2,573.7,785,565.9,747.8
	c-4.7-23.3-16.9-44.4-34.7-60.2C513.5,671.8,491.1,662.2,467.4,660.2L467.4,660.2z M380.5,945.7C272,886.5,215,815.4,227.7,754.6v0
	c3.4-16.1,11.8-30.7,24.1-41.7c12.3-11,27.7-17.8,44.1-19.4c1.6-0.1,3.2-0.2,4.9-0.2c28.5,0,51.7,18.8,64,52.3
	c1.6,4.3,4.8,7.7,9,9.5c4.2,1.8,9,1.8,13.2,0c4.2-1.8,7.5-5.3,9.1-9.5c13-35.4,38.1-54.4,68.9-52.1c16.4,1.6,31.8,8.4,44.1,19.4
	c12.3,11,20.7,25.6,24.1,41.7C546,815.4,489,886.4,380.5,945.7L380.5,945.7z M538.2,372.6c5.2-1.4,9.3-5.2,11.2-10.3
	c0.7-2,18.5-50,43.1-135.6c1.2-4,0.7-8.4-1.2-12.1c-1.9-3.8-5.2-6.6-9.1-8.1L548,193.8c6-16.2,10.2-32.9,12.6-49.9
	c1.5-16.1-2.9-32.3-12.5-45.4c-9.6-13.1-23.6-22.2-39.4-25.6c-4-1-8.3-0.5-11.9,1.4c-3.7,1.9-6.5,5.2-7.9,9.1
	c-17,47.6-38.9,78.5-68.1,96.1c-5.2-4.1-11.6-6.3-18.2-6.3H371c-7.4,0.1-14.5,3-19.9,8c-5.4,5.1-8.7,12-9.2,19.4L326.4,344
	c-0.8,7.7,1.7,15.4,6.9,21.1c5.7,6.3,13.7,9.9,22.2,9.9h47.1c6.3,0,12.5-2.1,17.6-5.9c17.6,8.8,37,13.3,56.7,12.9
	C497.7,381.6,518.3,378.5,538.2,372.6L538.2,372.6z M398.6,341.7h-38.4l14.7-135.3h23.7V341.7z M514,111.1
	c4.7,3.2,8.5,7.6,10.9,12.8c2.4,5.2,3.3,10.9,2.6,16.6c-3.5,19.7-8.9,39-16.3,57.6c-1.5,4.1-1.3,8.7,0.6,12.6c1.8,4,5.2,7.1,9.3,8.6
	l35.2,13.1c-16.5,56.3-29.5,94.5-35.1,110.3c-47.1,11.4-72.1,4.9-89.3-5.1V211.5C476.1,187.7,499.7,146.2,514,111.1L514,111.1z
	 M879.4,500.5c21.7-8.2,38.3-26.1,44.8-48.3c6.5-22.3,2.1-46.3-11.8-64.8c-13.9-18.5-35.7-29.5-58.9-29.5s-45,10.9-58.9,29.5
	c-13.9,18.5-18.3,42.6-11.8,64.8c6.5,22.3,23.1,40.2,44.8,48.3c-27.3,6-51.8,21-69.5,42.6c-17.7,21.6-27.6,48.6-28.1,76.5
	c-0.1,4.5,1.7,8.7,4.8,11.9c3.1,3.2,7.4,5,11.9,5h213.8c4.5,0,8.7-1.8,11.8-5c3.1-3.2,4.9-7.5,4.8-11.9
	c-0.5-27.9-10.4-54.9-28.1-76.5C931.2,521.5,906.7,506.4,879.4,500.5L879.4,500.5z M813.1,431.6c0-10.7,4.3-21,11.8-28.6
	c7.6-7.6,17.9-11.8,28.6-11.8c10.7,0,21,4.3,28.6,11.9c7.6,7.6,11.8,17.9,11.8,28.6c0,10.7-4.3,21-11.9,28.6S864.1,472,853.4,472
	c-10.7,0-21-4.3-28.5-11.9C817.3,452.5,813.1,442.3,813.1,431.6L813.1,431.6z M765,603.2c5.6-27.4,23.6-50.6,48.7-62.9
	c25.1-12.3,54.5-12.3,79.5,0c25.1,12.3,43.1,35.6,48.7,62.9H765z"/>
</svg>
