<?xml version="1.0" encoding="utf-8"?>
<!-- Generator: Adobe Illustrator 25.4.1, SVG Export Plug-In . SVG Version: 6.00 Build 0)  -->
<svg version="1.1" id="Layer_1" xmlns="http://www.w3.org/2000/svg" xmlns:xlink="http://www.w3.org/1999/xlink" x="0px" y="0px"
	 viewBox="0 0 1200 1200" style="enable-background:new 0 0 1200 1200;" xml:space="preserve">
<style type="text/css">
	.st0{fill:#FFFFFF;}
</style>
<path class="st0" d="M344.5,1162.6c-238.3-2.1-238.1-355.1,0-357.1C583.2,807.7,581.8,1160.7,344.5,1162.6z M202,984
	c0.3,50.8,27.6,97.6,71.6,122.8c44.1,25.3,98.2,25.1,142.2-0.3c44-25.4,71.1-72.3,71.1-123.1c-0.3-50.8-27.6-97.6-71.6-122.8
	c-44.1-25.2-98.2-25.1-142.2,0.3C229.2,886.3,202.1,933.2,202,984L202,984z M344.5,1075.7c-5,0-9.7-2-13.3-5.5
	c-3.5-3.5-5.5-8.3-5.5-13.3v-54.2h-54.2c-6.7,0-12.9-3.6-16.2-9.4c-3.3-5.8-3.3-12.9,0-18.8c3.3-5.8,9.5-9.4,16.2-9.4h54.2v-54.2
	c0-6.7,3.6-12.9,9.4-16.2c5.8-3.3,12.9-3.3,18.8,0c5.8,3.4,9.4,9.5,9.4,16.2v54.2h54.2v0c6.7,0,12.9,3.6,16.2,9.4
	c3.3,5.8,3.3,12.9,0,18.8c-3.4,5.8-9.5,9.4-16.2,9.4h-54.2v54.2c0,5-2,9.7-5.5,13.3C354.2,1073.7,349.4,1075.7,344.5,1075.7
	L344.5,1075.7z M872.4,975.8c-5,0-9.7-2-13.2-5.5c-3.5-3.5-5.5-8.3-5.5-13.2v-68.8l-268.4,0c-10.3,0-20.1-4.1-27.4-11.4
	c-7.3-7.3-11.4-17.1-11.4-27.4V656.3h-210v100.8c0,5-2,9.7-5.5,13.3c-3.5,3.5-8.3,5.5-13.3,5.5s-9.7-2-13.3-5.5L190.5,656.4h-64.2
	c-12.1,0-23.7-4.8-32.3-13.4c-8.6-8.6-13.4-20.2-13.4-32.3V81.5c0-12.1,4.8-23.7,13.4-32.3c8.6-8.6,20.2-13.4,32.3-13.4h582.2
	c12.1,0,23.7,4.8,32.3,13.4c8.6,8.6,13.4,20.2,13.4,32.3v340.3h259.3h0c10.2,0,19.9,4.1,27.1,11.3c7.2,7.2,11.2,16.9,11.2,27.1
	v389.2c0,10.2-4,20-11.2,27.3c-7.2,7.3-17,11.4-27.2,11.4h-45.3l-82.5,82.1C882.1,973.9,877.4,975.8,872.4,975.8L872.4,975.8z
	 M584,656.4l0,193.1l288.4,1.2c27.8,0.9,16.6,38.7,18.8,61.2l56-55.7c3.5-3.5,8.3-5.5,13.2-5.5h53.1l0.9-390.5l-0.9-0.9H754.1v61.5
	c16.5,3.8,32,11.3,45.2,21.9c100.4-76.7,208.7,48.1,115.4,140.4L812.6,785.3v0c-3.7,3.7-8.7,5.6-13.9,5.4
	c-5.2-0.2-10.1-2.5-13.5-6.4c-5.7-6.6-18.7-19.1-34.1-34c-32.1-28.6-61.6-60-88-94L584,656.4z M710.6,656.3c28.5,31.4,62,62.3,89,89
	l88.6-88.6c64.6-64.3-11.2-140.2-75.6-75.6c-20.9,19-39.8-18.8-58.5-21.2c-0.4,7.4,1,54.3-1,60.5h0c-1.9,9.9-7.2,18.9-14.9,25.5
	C730.5,652.3,720.7,656,710.6,656.3L710.6,656.3z M126.3,73.4c-2.2,0-4.3,0.8-5.8,2.4c-1.5,1.5-2.4,3.6-2.4,5.8v529.2
	c0,2.2,0.8,4.2,2.4,5.8c1.5,1.5,3.6,2.4,5.8,2.4h72c5,0,9.7,2,13.3,5.5l87.6,87.6v-74.3c0-5,2-9.7,5.5-13.3
	c3.5-3.5,8.3-5.5,13.3-5.5h356.3c4.7,0.6,24.9-0.5,29.9,0c8.5-0.8,12.2-1.3,12.6-8.4V81.5c0-2.2-0.8-4.2-2.3-5.8
	c-1.5-1.5-3.6-2.4-5.8-2.4L126.3,73.4z M395.9,579.8L395.9,579.8c-24.3-0.1-48.2-6.8-69-19.6c-6.3,7.7-15.8,12.2-25.7,12.2H198.1
	c-8.8,0-17.3-3.5-23.6-9.8c-6.3-6.2-9.8-14.7-9.8-23.6V304c0-8.8,3.5-17.3,9.8-23.6c6.2-6.2,14.7-9.8,23.6-9.8h103.1
	c7.6,0,14.9,2.6,20.8,7.3c5.9,4.7,10,11.3,11.7,18.7c65.2-7.5,81-104.7,84.4-136.3c2.3-15.8,11.4-29.9,24.9-38.5
	c13.5-8.6,30.1-10.8,45.4-6.2c15.3,4.7,27.8,15.8,34.2,30.5c16,41.6,15.6,87.7-1.1,129h96.3c13.3,0.1,26.1,5.2,35.8,14.3
	c9.7,9.1,15.5,21.6,16.3,34.9s-3.4,26.4-11.9,36.6c7.6,9.4,11.8,21.1,11.7,33.2c0,12.1-4.2,23.8-11.8,33.1
	c7.4,9.6,11.4,21.3,11.5,33.4c0,12.1-3.9,23.9-11.3,33.5c8.4,10.3,12.6,23.3,11.7,36.5c-0.8,13.2-6.7,25.6-16.3,34.7
	c-9.6,9.1-22.3,14.2-35.6,14.4L395.9,579.8z M334.5,519.5c17.1,14.7,38.8,22.8,61.4,22.8h221.9c5.1-0.1,9.8-2.8,12.4-7.2
	c2.6-4.4,2.8-9.8,0.4-14.3c-2.3-4.5-6.9-7.5-11.9-7.9c-14.9,0.6-36.6,2-37-18.8c0.6-21,22-19.2,37.1-18.7c5.1-0.4,9.6-3.4,11.9-7.9
	c2.3-4.5,2.1-9.9-0.5-14.3c-2.6-4.3-7.4-7-12.4-7H595c-6.6-0.1-12.7-3.7-15.9-9.5c-3.3-5.8-3.3-12.8,0-18.5
	c3.3-5.8,9.3-9.4,15.9-9.5h22.9c5-0.1,9.6-2.8,12.2-7.1c2.6-4.3,2.8-9.6,0.6-14.1c-2.2-4.5-6.6-7.5-11.5-8.1
	c-23.1-2-59.6,8.9-60.7-18.7c0.7-20,19.9-19.4,34.9-18.8c-1.2-0.2,24.5,0,24.5-0.1c5.2-0.1,10-2.9,12.6-7.5
	c2.6-4.5,2.5-10.1-0.1-14.6c-2.6-4.5-7.5-7.3-12.7-7.2H496.1c-6-0.1-11.6-2.9-15.1-7.7c-3.5-4.8-4.5-11-2.8-16.7
	c13.6-42.6,28.6-89.6,10.1-127c-1.3-3.6-3.9-6.7-7.2-8.6c-3.3-1.9-7.3-2.7-11.1-2c-3.6,0.3-7,1.8-9.6,4.2c-2.6,2.4-4.4,5.7-4.9,9.3
	c-11.1,103.7-55.7,165.5-120.9,170.3L334.5,519.5z M202.2,534.9H297V308.2h-94.8L202.2,534.9z M962,363.7
	C753.5,361.8,753.7,53,962,51.3C1171,53.3,1169.4,362.1,962,363.7L962,363.7z M842.1,207.5c0.2,42.8,23.2,82.2,60.3,103.4
	c37.1,21.3,82.7,21.1,119.7-0.3c37-21.4,59.8-61,59.8-103.7c-0.2-42.8-23.2-82.2-60.3-103.4c-37.1-21.3-82.7-21.2-119.7,0.3
	C864.9,125.2,842.1,164.7,842.1,207.5L842.1,207.5z M976.4,297.1c-5.6,0-10.9-2.6-14.5-6.9c-3.6-4.4-5-10.1-3.9-15.6l4-19.4h-19.6
	l-5.5,26.9h0c-1.5,6.4-6.2,11.6-12.5,13.7c-6.3,2-13.2,0.6-18.1-3.7c-5-4.3-7.3-11-6.1-17.5l4-19.4h-13.1
	c-6.6-0.1-12.7-3.7-15.9-9.5c-3.3-5.8-3.3-12.8,0-18.5c3.3-5.8,9.3-9.4,15.9-9.5h20.7l4.2-20.3h-24.9h0c-6.6-0.1-12.7-3.7-15.9-9.5
	c-3.3-5.8-3.3-12.8,0-18.5c3.3-5.8,9.3-9.4,15.9-9.5h32.5l5.5-26.9c1.5-6.4,6.2-11.6,12.5-13.7c6.3-2,13.2-0.6,18.1,3.7
	c5,4.3,7.3,11,6.1,17.5l-4,19.4h19.6l5.5-26.9v0c1.5-6.4,6.2-11.6,12.5-13.7c6.3-2,13.2-0.6,18.1,3.7c5,4.3,7.3,11,6.1,17.5l-4,19.4
	h13.1v0c6.6,0.1,12.7,3.7,15.9,9.5c3.3,5.8,3.3,12.8,0,18.5c-3.3,5.8-9.3,9.4-15.9,9.5h-20.7l-4.2,20.3h24.9l0,0
	c6.6,0.1,12.7,3.7,15.9,9.5c3.3,5.8,3.3,12.8,0,18.6c-3.3,5.8-9.3,9.3-15.9,9.5h-32.5C996.6,268.8,997,298,976.4,297.1L976.4,297.1z
	 M950.1,217.6h19.6l4.2-20.3h-19.6L950.1,217.6z"/>
</svg>
