<?xml version="1.0" encoding="utf-8"?>
<!-- Generator: Adobe Illustrator 25.4.1, SVG Export Plug-In . SVG Version: 6.00 Build 0)  -->
<svg version="1.1" id="Layer_1" xmlns="http://www.w3.org/2000/svg" xmlns:xlink="http://www.w3.org/1999/xlink" x="0px" y="0px"
	 viewBox="0 0 1200 1200" style="enable-background:new 0 0 1200 1200;" xml:space="preserve">
<style type="text/css">
	.st0{fill:#FFFFFF;}
</style>
<path class="st0" d="M1092.4,385c-56-128.5-160-230.1-289.8-283c-129.8-52.9-275.2-52.9-405.1,0S163.6,256.5,107.7,385v0.4
	C78,453.1,62.8,526,62.8,599.8c0,73.8,15.3,146.8,44.9,214.4v0.5c55.9,128.6,160,230.3,289.9,283.2c129.9,52.9,275.4,52.9,405.2,0
	s233.9-154.6,289.9-283.2v-0.4c29.6-67.6,44.9-140.6,44.9-214.4c0-73.8-15.3-146.8-44.9-214.4L1092.4,385z M996.1,362.5H814
	c-13-71.4-38-140.2-73.9-203.2C847.2,193.7,938.2,265.9,996.1,362.5L996.1,362.5z M762.5,600c0,54.4-3.8,108.7-11.5,162.5H449
	c-15.3-107.8-15.3-217.2,0-325h302C758.7,491.3,762.5,545.6,762.5,600z M600,137.5c51.1,0,106.1,88.1,137.2,225H462.8
	C493.9,225.6,548.9,137.5,600,137.5z M460,159.2c-36,63.1-61,131.8-73.9,203.2H203.9C261.8,265.9,352.8,193.7,460,159.2L460,159.2z
	 M137.5,600c0.1-55.5,10.3-110.6,30-162.5h206c-14.7,107.8-14.7,217.2,0,325H167.6C147.8,710.6,137.6,655.5,137.5,600L137.5,600z
	 M203.9,837.5h182.1c13,71.4,38,140.2,73.9,203.2C352.8,1006.3,261.8,934.1,203.9,837.5L203.9,837.5z M600,1062.5
	c-51.1,0-106.1-88.1-137.2-225h274.4C706.1,974.4,651.1,1062.5,600,1062.5L600,1062.5z M740,1040.8c36-63.1,61.1-131.8,74.1-203.2
	h182.1C938.3,934.1,847.3,1006.4,740,1040.8L740,1040.8z M1032.6,762.5H826.5c7.3-53.9,10.9-108.2,11-162.5
	c-0.1-54.4-3.7-108.6-11-162.5h205.9c40.1,104.6,40.1,220.4,0,325H1032.6z"/>
</svg>
