<?xml version="1.0" encoding="utf-8"?>
<!-- Generator: Adobe Illustrator 25.4.1, SVG Export Plug-In . SVG Version: 6.00 Build 0)  -->
<svg version="1.1" id="Layer_1" xmlns="http://www.w3.org/2000/svg" xmlns:xlink="http://www.w3.org/1999/xlink" x="0px" y="0px"
	 viewBox="0 0 1200 1200" style="enable-background:new 0 0 1200 1200;" xml:space="preserve">
<style type="text/css">
	.st0{fill:#FFFFFF;}
</style>
<path class="st0" d="M300.6,418.4h35.1c5,0,9.9,2.1,13.3,5.8l87,95.2l12.4-85.6h0c0.6-4.3,2.8-8.2,6-11s7.4-4.4,11.8-4.4H554
	c4-42.8,23.9-82.6,55.6-111.5c31.8-29,73.2-45,116.2-45.1h7.1V149.2c0-36.2-14.4-70.9-40-96.5c-25.6-25.6-60.3-40-96.5-40.1H300.6
	c-36.2,0-70.9,14.4-96.6,40.1c-25.6,25.6-40,60.3-40.1,96.6v132.6c0,36.2,14.4,70.9,40.1,96.6C229.7,404,264.4,418.4,300.6,418.4
	L300.6,418.4z M304.5,334.6l16.8-154.9v0c0.6-8,4.1-15.5,10-20.9c5.8-5.5,13.5-8.6,21.5-8.7h34.1c7.1,0,14,2.4,19.6,6.9
	c31.6-19,55.2-52.4,73.6-103.8c1.5-4.2,4.5-7.7,8.5-9.8c4-2.1,8.6-2.7,12.9-1.5c17.1,3.7,32.3,13.6,42.6,27.7s15.1,31.6,13.5,49
	c-2.6,18.4-7.2,36.5-13.6,53.9l37,13.8c4.3,1.6,7.8,4.7,9.8,8.7c2.1,4.1,2.5,8.7,1.3,13.1c-26.5,92.4-45.7,144.3-46.5,146.4
	c-2,5.4-6.5,9.6-12.1,11.1c-21.5,6.3-43.8,9.7-66.2,10.1c-21.2,0.4-42.3-4.4-61.3-14c-5.5,4.1-12.1,6.3-18.9,6.3H336
	c-9.2,0-17.9-3.9-24-10.7C306.4,351.1,303.6,342.9,304.5,334.6L304.5,334.6z M528.7,612.1H197.2c-41.2,0-80.7,16.4-109.8,45.6
	c-29.1,29.1-45.5,68.6-45.6,109.8V916c0,41.2,16.4,80.7,45.6,109.8c29.1,29.1,68.6,45.5,109.8,45.6h39.3c5.1,0,9.9,2.1,13.3,5.8
	l100.6,110.1l14.6-100.6v0c0.6-4.3,2.8-8.2,6-11s7.4-4.4,11.8-4.4h146c41.2,0,80.7-16.4,109.8-45.6c29.1-29.1,45.5-68.6,45.6-109.8
	V767.4c0-41.2-16.4-80.7-45.6-109.8S569.9,612.1,528.7,612.1L528.7,612.1z M371.4,1020.8c-5.3,2.8-11.5,2.8-16.8,0
	C156.1,915.9,154.3,811,162.8,770.7h0c5.1-25.1,18.3-47.9,37.4-64.9s43.3-27.4,68.9-29.6c18.4-1.4,36.9,2.2,53.4,10.4
	c16.5,8.2,30.5,20.8,40.5,36.3c10-15.6,23.9-28.1,40.5-36.4c16.5-8.2,35-11.8,53.4-10.4c25.6,2.2,49.7,12.5,68.9,29.6
	c19.2,17,32.3,39.8,37.4,65C571.6,810.9,569.8,915.9,371.4,1020.8L371.4,1020.8z M1021.6,297.7H725.9c-36.2,0-70.9,14.4-96.6,40.1
	c-25.6,25.6-40,60.3-40.1,96.6v132.6c0,6.5,0.5,13.1,1.5,19.6c27,9.3,51.7,24.6,72.1,44.6c20.4,20.1,36.1,44.4,45.9,71.3
	c5.7,0.7,11.5,1.1,17.3,1.1h130.2c4.3,0,8.5,1.6,11.8,4.4c3.3,2.8,5.4,6.7,6,11l12.4,85.6l87-95.2h0c3.4-3.7,8.3-5.8,13.3-5.8h35.1
	c36.2-0.1,70.9-14.5,96.6-40.1c25.6-25.6,40-60.4,40-96.6V434.4c0-36.2-14.4-70.9-40.1-96.6S1057.8,297.8,1021.6,297.7L1021.6,297.7
	z M1002,645.1L1002,645.1c-3.4,3.4-8,5.4-12.8,5.4H758.3c-4.8,0-9.4-1.9-12.8-5.4c-3.4-3.4-5.2-8.1-5.2-12.9
	c0.5-30.2,11.2-59.3,30.4-82.6c19.1-23.3,45.6-39.5,75-46c-23.4-8.8-41.4-28.2-48.4-52.2s-2.3-50,12.8-70c15-20,38.6-31.8,63.7-31.8
	s48.6,11.8,63.7,31.8c15,20,19.8,46,12.8,70c-7,24-24.9,43.4-48.4,52.2c29.5,6.4,55.9,22.7,75.1,46c19.1,23.4,29.8,52.5,30.3,82.7
	C1007.2,637.1,1005.3,641.7,1002,645.1L1002,645.1z M528,778.1c13.8,65.7-47.8,142.4-165,206.4c-117.3-64-178.8-140.7-165.1-206.4
	c3.7-17.4,12.8-33.2,26.1-45.1c13.3-11.9,30-19.2,47.7-21c1.8-0.1,3.5-0.2,5.2-0.2c30.8,0,55.9,20.3,69.2,56.5
	c1.7,4.6,5.2,8.4,9.8,10.3c4.5,1.9,9.7,1.9,14.2,0s8.1-5.7,9.8-10.3c14-38.2,41.1-58.8,74.4-56.3h0c17.7,1.7,34.4,9.1,47.7,20.9
	C515.2,744.9,524.3,760.7,528,778.1L528,778.1z M382.5,332.2h-41.6l15.9-146.1h25.7L382.5,332.2z M418.5,327.8l0-136.3
	c47.7-25.7,73.3-70.6,88.7-108.3c5.1,3.4,9.2,8.2,11.7,13.8c2.6,5.6,3.5,11.8,2.8,17.9c-3.8,21.3-9.6,42.1-17.6,62.2
	c-1.6,4.5-1.4,9.4,0.6,13.7c2,4.3,5.6,7.6,10,9.3l38,14.1c-17.8,60.8-31.9,102.1-37.9,119.1C464,345.6,436.9,338.5,418.5,327.8
	L418.5,327.8z M873.7,472.8c-11.6,0-22.7-4.6-30.8-12.8c-8.2-8.2-12.8-19.3-12.8-30.8s4.6-22.7,12.8-30.8
	c8.2-8.2,19.3-12.8,30.8-12.8s22.7,4.6,30.8,12.8c8.2,8.2,12.8,19.3,12.8,30.8c0,11.6-4.6,22.6-12.8,30.8S885.3,472.8,873.7,472.8
	L873.7,472.8z M969.2,614.6h-191c6-29.6,25.4-54.7,52.5-68c27.1-13.3,58.8-13.3,85.9,0C943.8,559.8,963.2,585,969.2,614.6
	L969.2,614.6z"/>
</svg>
